<?xml version="1.0" encoding="utf-8"?><svg viewBox="0 0 220 102" xmlns="http://www.w3.org/2000/svg" xmlns:xlink="http://www.w3.org/1999/xlink"><style>:root>svg{display:none}:root>svg:target{display:block}</style><svg fill="none" viewBox="0 0 67 18" id="Building" xmlns="http://www.w3.org/2000/svg"><path d="M6.891 6.897c.431.068.822.244 1.173.527.363.283.646.635.85 1.054.216.42.323.867.323 1.343 0 .6-.153 1.145-.459 1.632-.306.476-.753.856-1.343 1.139-.578.272-1.263.408-2.057.408H.958V1.151h4.25c.805 0 1.49.136 2.057.408.567.26.992.618 1.275 1.071.284.453.425.963.425 1.53 0 .703-.192 1.286-.578 1.751-.374.453-.872.782-1.496.986zm-4.386-.629h2.601c.726 0 1.287-.17 1.683-.51.397-.34.595-.81.595-1.411 0-.6-.198-1.071-.595-1.411-.396-.34-.969-.51-1.717-.51H2.505v3.842zm2.737 5.457c.771 0 1.372-.181 1.802-.544.431-.363.646-.867.646-1.513 0-.657-.226-1.173-.68-1.547-.453-.385-1.06-.578-1.819-.578H2.505v4.182h2.737zm14.404-8.041V13H18.1v-1.377c-.294.476-.708.85-1.24 1.122-.522.26-1.1.391-1.735.391-.725 0-1.377-.147-1.955-.442a3.383 3.383 0 01-1.377-1.36c-.329-.6-.493-1.332-.493-2.193V3.684h1.53v5.253c0 .918.232 1.626.697 2.125.465.487 1.1.731 1.904.731.828 0 1.48-.255 1.955-.765.476-.51.714-1.252.714-2.227V3.684h1.547zm3.411-1.513c-.294 0-.544-.102-.748-.306a1.017 1.017 0 01-.306-.748c0-.295.102-.544.306-.748.204-.204.454-.306.748-.306.284 0 .522.102.714.306.204.204.306.453.306.748s-.102.544-.306.748a.943.943 0 01-.714.306zm.748 1.513V13h-1.547V3.684h1.547zM27.99.42V13h-1.547V.42h1.547zm2.058 7.888c0-.952.193-1.785.578-2.499a4.198 4.198 0 011.581-1.683c.68-.397 1.44-.595 2.278-.595.726 0 1.4.17 2.023.51.624.329 1.1.765 1.428 1.309V.42H39.5V13h-1.564v-1.751c-.306.555-.759 1.014-1.36 1.377-.6.351-1.303.527-2.108.527a4.311 4.311 0 01-2.26-.612 4.292 4.292 0 01-1.582-1.717c-.385-.737-.578-1.575-.578-2.516zm7.888.017c0-.703-.141-1.315-.425-1.836a2.926 2.926 0 00-1.156-1.19 3.033 3.033 0 00-1.58-.425 3.13 3.13 0 00-1.582.408 2.96 2.96 0 00-1.139 1.19c-.283.521-.425 1.133-.425 1.836 0 .714.142 1.337.425 1.87a3.08 3.08 0 001.14 1.207 3.13 3.13 0 001.58.408 3.13 3.13 0 001.581-.408 3.043 3.043 0 001.156-1.207c.284-.533.425-1.15.425-1.853zm4.978-6.154c-.295 0-.544-.102-.748-.306a1.017 1.017 0 01-.306-.748c0-.295.102-.544.306-.748.204-.204.453-.306.748-.306.283 0 .521.102.714.306.204.204.306.453.306.748s-.102.544-.306.748a.943.943 0 01-.714.306zm.748 1.513V13h-1.547V3.684h1.547zm7.175-.17c1.134 0 2.052.346 2.754 1.037.703.68 1.054 1.666 1.054 2.958V13h-1.53V7.73c0-.93-.232-1.638-.697-2.125-.464-.499-1.1-.748-1.904-.748-.816 0-1.467.255-1.955.765-.476.51-.714 1.252-.714 2.227V13h-1.547V3.684h1.547V5.01c.306-.476.72-.844 1.241-1.105a3.929 3.929 0 011.751-.391zm10.177.017c.805 0 1.508.176 2.108.527.612.351 1.066.793 1.36 1.326v-1.7h1.564v9.52c0 .85-.181 1.604-.544 2.261a3.85 3.85 0 01-1.564 1.564c-.668.374-1.45.561-2.346.561-1.224 0-2.244-.289-3.06-.867-.816-.578-1.297-1.366-1.445-2.363h1.53c.17.567.522 1.02 1.054 1.36.533.351 1.173.527 1.921.527.85 0 1.542-.266 2.074-.799.544-.533.816-1.28.816-2.244v-1.955c-.306.544-.759.997-1.36 1.36-.6.363-1.303.544-2.108.544a4.311 4.311 0 01-2.26-.612 4.292 4.292 0 01-1.582-1.717c-.385-.737-.578-1.575-.578-2.516 0-.952.193-1.785.578-2.499a4.198 4.198 0 011.581-1.683 4.405 4.405 0 012.261-.595zm3.468 4.794c0-.703-.141-1.315-.425-1.836a2.926 2.926 0 00-1.156-1.19 3.033 3.033 0 00-1.58-.425 3.13 3.13 0 00-1.582.408 2.96 2.96 0 00-1.139 1.19c-.283.521-.425 1.133-.425 1.836 0 .714.142 1.337.425 1.87a3.08 3.08 0 001.14 1.207 3.13 3.13 0 001.58.408 3.13 3.13 0 001.581-.408 3.043 3.043 0 001.156-1.207c.284-.533.425-1.15.425-1.853z" fill="#403E3B"/></svg><svg fill="none" viewBox="0 0 102 102" id="Finalizing" xmlns="http://www.w3.org/2000/svg"><path fill-rule="evenodd" clip-rule="evenodd" d="M51 0c28.166 0 51 22.834 51 51s-22.834 51-51 51S0 79.166 0 51 22.834 0 51 0zm-6.444 37L39 44v21h11.111V44l-5.555-7zm18.055 2.8h-8.333c-.767 0-1.39.627-1.39 1.4v22.4c0 .773.623 1.4 1.39 1.4h8.333c.767 0 1.389-.627 1.389-1.4v-4.2h-2.778v-2.8H64v-2.8h-4.167V51H64v-2.8h-2.778v-2.8H64v-4.2c0-.773-.622-1.4-1.389-1.4zM47.333 59.4v2.8h-5.555v-2.8h5.555z" fill="#403E3B"/></svg><svg fill="none" viewBox="0 0 102 102" id="Sketching" xmlns="http://www.w3.org/2000/svg"><path fill="#E5E5E5" d="M0 0h102v102H0z"/><g clip-path="url(#cclip0_0_1)"><path fill="#fff" d="M-266-2414h1440v6411H-266z"/><path fill-rule="evenodd" clip-rule="evenodd" d="M51 0c28.166 0 51 22.834 51 51s-22.834 51-51 51S0 79.166 0 51 22.834 0 51 0zm1.396 41.673l-8.944.993C41.468 51.271 39.974 56.401 36 61.035l1.96 1.957c4.682-5.228 6.083-11.227 7.758-17.753l5.646-.627 6.04 6.034-.628 5.642c-6.532 1.674-12.537 3.074-17.767 7.752l1.96 1.96c4.636-3.971 9.771-5.461 18.383-7.447l.994-8.936-7.95-7.944zm-1.987 9.928a2.812 2.812 0 00-4.74 1.24 2.807 2.807 0 00.766 2.731 2.814 2.814 0 003.924-.05 2.807 2.807 0 00.05-3.92zm5.465-14.396a.703.703 0 00-1.192.397l-.297 2.086 7.948 7.942 2.072-.323a.703.703 0 00.389-1.19l-8.92-8.912z" fill="#403E3B"/></g><defs><clipPath id="cclip0_0_1"><path fill="#fff" transform="translate(-266 -2414)" d="M0 0h1440v6411H0z"/></clipPath></defs></svg><svg fill="none" viewBox="0 0 24 24" id="face_book" xmlns="http://www.w3.org/2000/svg"><path d="M17.625 7.771H13.79v-2.49c0-.936.628-1.155 1.068-1.155h2.7V.014L13.835 0c-4.13 0-5.068 3.067-5.068 5.031v2.74H6.375v4.236h2.39V24h5.028V12.01h3.392l.44-4.239z" fill="#1B1A1A"/></svg><svg fill="none" viewBox="0 0 24 24" id="insta" xmlns="http://www.w3.org/2000/svg"><path d="M12 5.768A6.239 6.239 0 005.768 12 6.237 6.237 0 0012 18.23 6.236 6.236 0 0018.23 12 6.235 6.235 0 0012 5.768zm0 10.086A3.857 3.857 0 018.146 12 3.857 3.857 0 0112 8.146 3.857 3.857 0 0115.854 12 3.857 3.857 0 0112 15.854zM17.094 0H6.906A6.915 6.915 0 000 6.906v10.188A6.915 6.915 0 006.906 24h10.188A6.915 6.915 0 0024 17.094V6.906A6.914 6.914 0 0017.094 0zm4.53 17.094a4.535 4.535 0 01-4.53 4.528H6.906a4.533 4.533 0 01-4.528-4.528V6.906a4.533 4.533 0 014.528-4.528h10.188a4.533 4.533 0 014.528 4.528v10.188h.002zM18.317 3.968c-.898 0-1.631.73-1.631 1.63 0 .898.73 1.631 1.63 1.631.899 0 1.631-.73 1.631-1.63 0-.9-.732-1.631-1.63-1.631z" fill="#1B1A1A"/></svg><svg viewBox="0 0 220 19" id="logo" xmlns="http://www.w3.org/2000/svg"><path clip-rule="evenodd" d="M34.412 5.122c1.508 0 2.723.386 3.646 1.159.922.772 1.415 1.825 1.48 3.158h-2.744c-.048-.601-.289-1.081-.722-1.439-.433-.357-1.019-.536-1.757-.536-.721 0-1.275.138-1.66.414-.385.277-.578.643-.578 1.098 0 .358.129.658.386.902.256.244.569.435.938.573.369.139.914.313 1.636.525.963.26 1.753.524 2.37.792a4.416 4.416 0 011.601 1.183c.45.52.682 1.212.698 2.073a3.51 3.51 0 01-.626 2.05c-.417.6-1.006 1.072-1.768 1.414-.762.341-1.657.512-2.684.512-1.042 0-1.977-.193-2.803-.573-.826-.382-1.48-.903-1.962-1.561a3.924 3.924 0 01-.77-2.207h2.84c.048.569.317 1.044.806 1.426.49.383 1.103.574 1.841.574.77 0 1.368-.15 1.793-.452.425-.3.638-.687.638-1.158 0-.504-.237-.878-.71-1.122-.473-.244-1.224-.512-2.25-.805-.995-.276-1.805-.545-2.43-.805a4.263 4.263 0 01-1.625-1.195c-.457-.537-.686-1.244-.686-2.122 0-.715.209-1.37.626-1.963.417-.594 1.014-1.061 1.793-1.403.778-.341 1.672-.512 2.683-.512zm70.606 0c1.252 0 2.367.277 3.345.83a5.816 5.816 0 012.286 2.329c.546 1 .819 2.15.819 3.45 0 .505-.032.96-.097 1.367H101.24c.08 1.073.471 1.935 1.179 2.585.706.65 1.572.976 2.599.976 1.476 0 2.519-.626 3.129-1.878h2.96a6.049 6.049 0 01-2.178 3.036c-1.051.789-2.355 1.183-3.911 1.183-1.267 0-2.402-.289-3.405-.866a6.121 6.121 0 01-2.358-2.439c-.57-1.049-.855-2.264-.855-3.646 0-1.382.277-2.598.83-3.646a5.88 5.88 0 012.335-2.427c1.003-.57 2.154-.854 3.453-.854zm-28.397 0c1.268 0 2.415.284 3.442.853a6.191 6.191 0 012.43 2.44c.594 1.056.89 2.268.89 3.634 0 1.365-.304 2.577-.914 3.634a6.372 6.372 0 01-2.49 2.45c-1.052.578-2.21.867-3.478.867-1.252 0-2.383-.289-3.393-.866a6.181 6.181 0 01-2.383-2.44c-.577-1.048-.866-2.263-.866-3.646 0-1.365.297-2.577.89-3.634a6.191 6.191 0 012.43-2.439c1.028-.569 2.175-.853 3.442-.853zm137.892-.073c1.588 0 2.856.402 3.802 1.207.947.805 1.468 1.89 1.565 3.256h-3.225c-.048-.537-.271-.963-.662-1.28-.393-.318-.918-.476-1.576-.476-.612 0-1.079.114-1.408.341a1.092 1.092 0 00-.493.952c0 .455.224.8.674 1.036.447.236 1.147.476 2.093.72.963.244 1.757.496 2.383.756.625.26 1.167.662 1.624 1.207.457.545.692 1.264.71 2.159 0 .78-.213 1.48-.638 2.097-.425.618-1.035 1.102-1.829 1.451-.794.35-1.72.525-2.779.525-1.091 0-2.07-.2-2.936-.598-.868-.398-1.552-.939-2.058-1.622a4.146 4.146 0 01-.83-2.268h3.393c.062.52.317.951.758 1.293.441.341.991.512 1.649.512.639 0 1.141-.13 1.504-.39.361-.26.541-.594.541-1 0-.44-.222-.769-.662-.988-.441-.22-1.143-.46-2.105-.72-.995-.244-1.811-.496-2.443-.756a4.238 4.238 0 01-1.636-1.195c-.458-.537-.686-1.26-.686-2.17 0-.749.21-1.432.638-2.05.425-.617 1.034-1.105 1.827-1.463.796-.357 1.73-.536 2.805-.536zm-68.273 0c.995 0 1.867.203 2.613.61.746.406 1.344.918 1.791 1.536V5.268h3.395V18.78h-3.395v-1.976c-.433.635-1.029 1.159-1.791 1.574-.764.414-1.642.622-2.637.622a5.613 5.613 0 01-3.068-.878c-.923-.586-1.651-1.411-2.19-2.476-.536-1.065-.804-2.289-.804-3.67 0-1.367.268-2.578.804-3.635.539-1.057 1.267-1.87 2.19-2.439.922-.569 1.955-.853 3.092-.853zM58.14.732v6.61c.465-.651 1.103-1.184 1.913-1.598.81-.415 1.713-.622 2.707-.622 1.171 0 2.23.284 3.177.853.946.57 1.692 1.379 2.238 2.427.545 1.049.818 2.248.818 3.598 0 1.35-.273 2.557-.818 3.622-.546 1.065-1.296 1.894-2.25 2.487-.955.594-2.01.89-3.165.89-1.026 0-1.937-.203-2.731-.61-.794-.406-1.424-.926-1.89-1.56v1.951h-2.743V.732h2.744zm135.173 4.316c1.267 0 2.4.277 3.403.83a5.788 5.788 0 012.335 2.353c.555 1.016.83 2.183.83 3.5 0 .488-.03.927-.096 1.317h-9.747c.08.976.417 1.74 1.011 2.293.593.553 1.323.829 2.192.829 1.251 0 2.14-.545 2.671-1.634h3.632c-.383 1.3-1.121 2.37-2.212 3.207-1.093.84-2.431 1.256-4.019 1.256-1.286 0-2.437-.288-3.455-.866a6.042 6.042 0 01-2.381-2.45c-.569-1.058-.854-2.277-.854-3.66 0-1.396.281-2.623.842-3.682a5.922 5.922 0 012.359-2.44c1.01-.566 2.173-.853 3.489-.853zM2.91 1.83l3.467 13.805L10.13 1.829h3.083l3.487 13.732 3.492-13.732h2.934L18.169 18.78h-3.104L11.55 5.951 7.82 18.781l-3.08.024L0 1.829h2.91zM208.35 5.073V8.66h-.891c-1.057 0-1.857.252-2.392.756-.54.504-.808 1.382-.808 2.634v6.732h-3.368V5.268h3.368v2.097a4.763 4.763 0 011.696-1.683c.7-.406 1.496-.61 2.395-.61zm-117.002.049c1.043 0 1.977.22 2.804.659.826.439 1.472 1.089 1.937 1.95.465.863.698 1.903.698 3.123v7.926h-2.72v-7.512c0-1.203-.296-2.126-.89-2.768-.594-.642-1.404-.963-2.43-.963-1.027 0-1.842.32-2.443.963-.602.642-.903 1.565-.903 2.768v7.512H84.66V5.342h2.743v1.536a4.547 4.547 0 011.721-1.293 5.438 5.438 0 012.226-.463zm71.519-.049V8.66h-.89c-1.057 0-1.857.252-2.393.756-.539.504-.808 1.382-.808 2.634v6.732h-3.367V5.268h3.367v2.097a4.766 4.766 0 011.697-1.683c.7-.406 1.496-.61 2.394-.61zM44.448.732v6.17a4.604 4.604 0 011.768-1.317 5.845 5.845 0 012.347-.463c1.01 0 1.913.22 2.707.659.794.439 1.42 1.089 1.877 1.95.457.863.686 1.903.686 3.123v7.926h-2.72v-7.512c0-1.203-.296-2.126-.89-2.768-.593-.642-1.404-.963-2.43-.963-1.027 0-1.841.32-2.443.963-.602.642-.903 1.565-.903 2.768v7.512h-2.743V.732h2.743zm-17.28 4.61V18.78h-2.742V5.341h2.743zm106.847-3.586c1.3 0 2.407.227 3.321.683.915.455 1.601 1.081 2.058 1.878.457.797.684 1.699.684 2.707 0 .91-.211 1.764-.636 2.561-.425.797-1.091 1.439-1.997 1.927-.907.487-2.05.731-3.43.731H131.2v6.537h-3.369V1.756h6.184zm34.559.17v3.342h2.984v2.805h-2.984v6.536c0 .456.108.785.325.988.216.204.581.305 1.095.305h1.564v2.878h-2.118c-2.84 0-4.259-1.398-4.259-4.195V8.073h-1.589V5.268h1.589V1.927h3.393zm11.838 3.147c1.589 0 2.874.508 3.851 1.524.978 1.016 1.468 2.435 1.468 4.256v7.927h-3.367v-7.463c0-1.074-.267-1.899-.797-2.476-.527-.577-1.251-.866-2.165-.866-.931 0-1.665.289-2.2.866-.54.577-.809 1.402-.809 2.476v7.463h-3.369V5.268h3.369v1.683a4.662 4.662 0 011.723-1.378 5.248 5.248 0 012.296-.5zM62.159 7.536c-.69 0-1.344.18-1.962.537-.617.358-1.115.878-1.492 1.56-.377.684-.565 1.489-.565 2.416 0 .926.188 1.735.565 2.426.377.691.875 1.216 1.492 1.573a3.853 3.853 0 003.947-.012c.618-.366 1.115-.898 1.492-1.597.377-.7.566-1.512.566-2.44 0-.926-.189-1.727-.566-2.402-.377-.674-.874-1.187-1.492-1.536a3.966 3.966 0 00-1.985-.525zm14.414 0c-.706 0-1.36.171-1.961.513-.602.341-1.08.85-1.432 1.524-.353.675-.53 1.5-.53 2.476 0 1.447.365 2.565 1.095 3.353.73.789 1.649 1.183 2.756 1.183a4.04 4.04 0 001.985-.512c.618-.342 1.12-.854 1.504-1.537.385-.683.578-1.512.578-2.487 0-.976-.185-1.801-.554-2.476-.369-.675-.858-1.183-1.468-1.524a3.973 3.973 0 00-1.973-.513zm44.52-3.658V8.61h4.546v2.975h-4.546v4.732h-3.177v-4.732h-4.548V8.61h4.548V3.878h3.177zm26.015 4.17c-.627 0-1.205.155-1.734.464-.528.309-.959.76-1.286 1.354-.329.593-.493 1.296-.493 2.11 0 .812.164 1.524.493 2.133.327.61.762 1.078 1.298 1.403a3.273 3.273 0 001.722.488 3.427 3.427 0 003.055-1.841c.32-.594.481-1.306.481-2.135 0-.83-.161-1.54-.481-2.134a3.426 3.426 0 00-3.055-1.841zm-42.21-.584c-.947 0-1.757.305-2.431.914-.674.61-1.075 1.435-1.203 2.476h7.34c-.016-1.025-.377-1.846-1.083-2.464-.708-.617-1.58-.926-2.623-.926zm88.317.39c-.835 0-1.536.255-2.106.767-.57.513-.918 1.224-1.045 2.134h6.327c-.016-.878-.329-1.58-.938-2.11-.608-.528-1.356-.792-2.238-.792zm-59.344-3.318H131.2v4.951h2.671c.93 0 1.618-.215 2.07-.646.449-.43.673-1.036.673-1.817 0-1.658-.914-2.488-2.743-2.488zM25.821 0c.482 0 .89.17 1.228.512.337.342.505.764.505 1.268s-.168.927-.505 1.269a1.66 1.66 0 01-1.228.512c-.497 0-.914-.17-1.251-.512-.337-.342-.506-.764-.506-1.269 0-.504.169-.926.506-1.268A1.688 1.688 0 0125.82 0z"/></svg><svg fill="none" viewBox="0 0 24 24" id="twitter" xmlns="http://www.w3.org/2000/svg"><path d="M24 4.557a9.882 9.882 0 01-2.828.776 4.931 4.931 0 002.164-2.724 9.9 9.9 0 01-3.126 1.196 4.913 4.913 0 00-3.593-1.555 4.923 4.923 0 00-4.926 4.923c0 .387.044.762.127 1.122A13.968 13.968 0 011.67 3.15a4.919 4.919 0 00-.666 2.476c0 1.709.87 3.215 2.188 4.098a4.876 4.876 0 01-2.23-.617v.063a4.926 4.926 0 003.95 4.827 4.918 4.918 0 01-2.222.085 4.929 4.929 0 004.597 3.42 9.873 9.873 0 01-6.113 2.106A9.78 9.78 0 010 19.539a13.946 13.946 0 007.547 2.211c9.056 0 14.01-7.501 14.01-14.007 0-.213-.006-.425-.014-.636.962-.696 1.799-1.563 2.457-2.55z" fill="#1B1A1A"/></svg></svg>